<svg width="74" height="74" viewBox="0 0 74 74" fill="none" xmlns="http://www.w3.org/2000/svg">
<g filter="url(#filter0_d_4015_8)">
<circle cx="37" cy="33" r="28" fill="#00D9FF"/>
</g>
<path d="M36.42 20.8879C43.833 20.8879 49.923 26.3689 50.952 33.4879H55.32L47.97 41.8879L40.62 33.4879H45.492C45.0218 31.4324 43.8688 29.597 42.2212 28.2812C40.5736 26.9653 38.5286 26.2468 36.42 26.2429C33.375 26.2429 30.687 27.7339 28.986 29.9809L25.395 25.8859C26.7699 24.3147 28.465 23.0559 30.3666 22.1938C32.2682 21.3318 34.3322 20.8865 36.42 20.8879ZM35.58 49.1119C28.188 49.1119 22.077 43.6309 21.048 36.5119H16.68L24.03 28.1119C26.487 30.9049 28.923 33.7189 31.38 36.5119H26.508C26.9781 38.5674 28.1311 40.4029 29.7788 41.7187C31.4264 43.0345 33.4714 43.753 35.58 43.7569C38.625 43.7569 41.313 42.2659 43.014 40.0189L46.605 44.1139C45.2318 45.6873 43.537 46.9476 41.6351 47.8098C39.7331 48.6721 37.6683 49.1161 35.58 49.1119Z" fill="black"/>
<defs>
<filter id="filter0_d_4015_8" x="0" y="0" width="74" height="74" filterUnits="userSpaceOnUse" color-interpolation-filters="sRGB">
<feFlood flood-opacity="0" result="BackgroundImageFix"/>
<feColorMatrix in="SourceAlpha" type="matrix" values="0 0 0 0 0 0 0 0 0 0 0 0 0 0 0 0 0 0 127 0" result="hardAlpha"/>
<feOffset dy="4"/>
<feGaussianBlur stdDeviation="4.5"/>
<feComposite in2="hardAlpha" operator="out"/>
<feColorMatrix type="matrix" values="0 0 0 0 1 0 0 0 0 0.895833 0 0 0 0 0.895833 0 0 0 0.25 0"/>
<feBlend mode="normal" in2="BackgroundImageFix" result="effect1_dropShadow_4015_8"/>
<feBlend mode="normal" in="SourceGraphic" in2="effect1_dropShadow_4015_8" result="shape"/>
</filter>
</defs>
</svg>
