<svg width="39" height="42" viewBox="0 0 39 42" fill="none" xmlns="http://www.w3.org/2000/svg">
<path d="M18.2616 12.1462C18.6386 11.8804 19.0655 11.7405 19.5 11.7405C19.9345 11.7405 20.3614 11.8804 20.7384 12.1462L37.7482 24.1462C39.4173 25.3237 39.4173 28.2868 37.7482 29.4643L20.7384 41.4643C20.3614 41.7302 19.9345 41.87 19.5 41.87C19.0655 41.87 18.6386 41.7302 18.2616 41.4643L1.25181 29.4643C-0.41727 28.2868 -0.41727 25.3237 1.25181 24.146L18.2616 12.1462ZM19.4995 18.3364L7.49745 26.8046L19.4995 35.2712L31.5018 26.8046L19.4995 18.3364Z" fill="url(#paint0_linear_4002_2)"/>
<path d="M18.2616 0.405755C18.6386 0.139881 19.0655 0 19.5 0C19.9345 0 20.3614 0.139881 20.7384 0.405755L37.7482 12.4058C39.4173 13.5833 39.4173 16.5463 37.7482 17.7238L20.7384 29.7238C20.3614 29.9897 19.9345 30.1296 19.5 30.1296C19.0655 30.1296 18.6386 29.9897 18.2616 29.7238L1.25181 17.7238C-0.41727 16.5463 -0.41727 13.5833 1.25181 12.4058L18.2616 0.405755ZM19.4995 6.59607L7.49745 15.0641L19.4995 23.5309L31.5018 15.0641L19.4995 6.59607Z" fill="url(#paint1_linear_4002_2)"/>
<path d="M18.3102 12.1416L20.7742 17.4689L3.72234 29.4169L1.25818 24.0897L18.3102 12.1416Z" fill="url(#paint2_linear_4002_2)"/>
<defs>
<linearGradient id="paint0_linear_4002_2" x1="-251.628" y1="1511.71" x2="3324.2" y2="1511.71" gradientUnits="userSpaceOnUse">
<stop offset="1" stop-color="#000002"/>
</linearGradient>
<linearGradient id="paint1_linear_4002_2" x1="4137.08" y1="1499.97" x2="556.452" y2="1499.97" gradientUnits="userSpaceOnUse">
<stop offset="0.85" stop-color="#05011B"/>
</linearGradient>
<linearGradient id="paint2_linear_4002_2" x1="-249.932" y1="1322.7" x2="3314.97" y2="1300.98" gradientUnits="userSpaceOnUse">
<stop stop-color="#1E1E1E"/>
</linearGradient>
</defs>
</svg>
