<svg width="37" height="36" viewBox="0 0 37 36" fill="none" xmlns="http://www.w3.org/2000/svg">
<path d="M36.5204 18.5832L19.872 0.570113C19.1709 -0.190038 17.8242 -0.190038 17.1232 0.570113L0.474716 18.5832C0.235498 18.8421 0.0784775 19.1629 0.0226651 19.5069C-0.0331474 19.8509 0.014641 20.2033 0.160245 20.5214C0.456217 21.1716 1.11846 21.5896 1.84914 21.5896H5.54879V34.1987C5.54879 34.6764 5.74368 35.1346 6.09059 35.4724C6.4375 35.8102 6.90801 36 7.39862 36H12.9481C13.4387 36 13.9092 35.8102 14.2561 35.4724C14.603 35.1346 14.7979 34.6764 14.7979 34.1987V26.9935H22.1972V34.1987C22.1972 34.6764 22.3921 35.1346 22.739 35.4724C23.0859 35.8102 23.5564 36 24.0471 36H29.5965C30.0871 36 30.5576 35.8102 30.9046 35.4724C31.2515 35.1346 31.4464 34.6764 31.4464 34.1987V21.5896H35.146C35.5043 21.591 35.8552 21.491 36.1561 21.3016C36.4569 21.1122 36.6947 20.8417 36.8404 20.523C36.9861 20.2043 37.0335 19.8512 36.9766 19.5067C36.9198 19.1623 36.7613 18.8414 36.5204 18.5832Z" fill="black"/>
</svg>
