<svg width="24" height="27" viewBox="0 0 24 27" fill="none" xmlns="http://www.w3.org/2000/svg">
<path d="M4.7135 1.60532C4.87635 1.41096 4.9565 1.16049 4.93675 0.907698C4.917 0.654903 4.79892 0.419928 4.60786 0.253217C4.4168 0.0865068 4.168 0.00135084 3.91486 0.0160305C3.66172 0.0307101 3.42442 0.144055 3.25392 0.331733L1.58508 2.2434C0.638784 3.32784 0.103847 4.71045 0.073832 6.1494L0.000207116 9.66144C-0.00510274 9.91837 0.0918693 10.1669 0.269791 10.3523C0.447712 10.5377 0.692008 10.6449 0.948936 10.6502C1.20586 10.6555 1.45438 10.5586 1.63981 10.3806C1.82524 10.2027 1.9324 9.95841 1.93771 9.70148L2.01004 6.19073C2.03076 5.20613 2.39699 4.26016 3.04467 3.51827L4.7135 1.60532Z" fill="black"/>
<path fill-rule="evenodd" clip-rule="evenodd" d="M4.4655 8.4344C4.55225 7.05249 5.16238 5.75559 6.1717 4.80771C7.18101 3.85982 8.51363 3.33222 9.89825 3.33232H10.6177V2.36357C10.6177 2.02099 10.7538 1.69245 10.996 1.45022C11.2383 1.20799 11.5668 1.0719 11.9094 1.0719C12.252 1.0719 12.5805 1.20799 12.8227 1.45022C13.065 1.69245 13.201 2.02099 13.201 2.36357V3.33232H13.9205C15.3051 3.33222 16.6377 3.85982 17.6471 4.80771C18.6564 5.75559 19.2665 7.05249 19.3533 8.4344L19.6387 12.9992C19.7491 14.7393 20.3333 16.4161 21.3282 17.8481C21.5341 18.1439 21.6598 18.4881 21.6933 18.8469C21.7268 19.2058 21.6668 19.5672 21.5192 19.8961C21.3717 20.2249 21.1415 20.51 20.8511 20.7235C20.5607 20.9371 20.22 21.0718 19.8622 21.1147L15.4615 21.6417V23.0302C15.4615 23.9723 15.0872 24.8758 14.4211 25.5419C13.7549 26.2081 12.8515 26.5823 11.9094 26.5823C10.9673 26.5823 10.0638 26.2081 9.39768 25.5419C8.73153 24.8758 8.3573 23.9723 8.3573 23.0302V21.6417L3.95659 21.1134C3.59892 21.0704 3.25845 20.9356 2.96826 20.7222C2.67807 20.5087 2.44803 20.2238 2.30048 19.8952C2.15293 19.5665 2.09289 19.2053 2.12619 18.8466C2.1595 18.4879 2.28501 18.1439 2.49055 17.8481C3.48544 16.4161 4.06969 14.7393 4.18005 12.9992L4.4655 8.4344ZM10.2948 23.0302C10.2948 23.4584 10.4649 23.8691 10.7677 24.1719C11.0705 24.4747 11.4812 24.6448 11.9094 24.6448C12.3376 24.6448 12.7483 24.4747 13.0511 24.1719C13.3539 23.8691 13.524 23.4584 13.524 23.0302V22.0615H10.2948V23.0302Z" fill="black"/>
<path d="M19.1983 0.238686C19.0048 0.407602 18.8863 0.646453 18.8688 0.902722C18.8514 1.15899 18.9364 1.41169 19.1053 1.60527L20.7741 3.51694C21.4216 4.25934 21.7874 5.2058 21.8074 6.19068L21.8811 9.70014C21.8837 9.82736 21.9113 9.95282 21.9625 10.0693C22.0136 10.1859 22.0871 10.2912 22.179 10.3793C22.2708 10.4674 22.379 10.5365 22.4976 10.5828C22.6161 10.629 22.7426 10.6515 22.8698 10.6489C22.997 10.6462 23.1225 10.6186 23.239 10.5675C23.3556 10.5164 23.4609 10.4428 23.549 10.351C23.6371 10.2592 23.7062 10.1509 23.7525 10.0324C23.7987 9.91381 23.8212 9.78732 23.8186 9.6601L23.7449 6.14935C23.7149 4.7104 23.18 3.32779 22.2337 2.24335L20.5648 0.331686C20.3959 0.138179 20.1571 0.0196772 19.9008 0.00223735C19.6445 -0.0152025 19.3918 0.0698472 19.1983 0.238686Z" fill="black"/>
</svg>
