<svg width="74" height="74" viewBox="0 0 74 74" fill="none" xmlns="http://www.w3.org/2000/svg">
<g filter="url(#filter0_d_4015_7)">
<circle cx="37" cy="33" r="28" fill="#FFE100"/>
</g>
<path d="M47.1646 44.3333H42.6667C42.2653 44.3333 41.9291 44.1973 41.658 43.9253C41.3869 43.6533 41.2509 43.3171 41.25 42.9167C41.2491 42.5162 41.3851 42.18 41.658 41.908C41.9309 41.636 42.2672 41.5 42.6667 41.5H47.1646L45.8896 40.225C45.6299 39.9653 45.5 39.6409 45.5 39.2517C45.5 38.8626 45.6417 38.5259 45.925 38.2417C46.1847 37.9819 46.5153 37.8521 46.9167 37.8521C47.3181 37.8521 47.6486 37.9819 47.9083 38.2417L51.5917 41.925C51.875 42.2083 52.0167 42.5389 52.0167 42.9167C52.0167 43.2944 51.875 43.625 51.5917 43.9083L47.9083 47.5917C47.6486 47.8514 47.3242 47.9874 46.9351 47.9997C46.546 48.0119 46.2093 47.8759 45.925 47.5917C45.6653 47.3319 45.5354 47.0014 45.5354 46.6C45.5354 46.1986 45.6653 45.8681 45.925 45.6083L47.1646 44.3333ZM35.5833 34.4167V38.6667C35.5833 39.0681 35.7193 39.4047 35.9913 39.6767C36.2633 39.9487 36.5996 40.0843 37 40.0833C37.4004 40.0824 37.7371 39.9464 38.0101 39.6753C38.283 39.4043 38.4186 39.0681 38.4167 38.6667V34.4167H42.6667C43.0681 34.4167 43.4047 34.2807 43.6767 34.0087C43.9487 33.7367 44.0843 33.4004 44.0833 33C44.0824 32.5996 43.9464 32.2633 43.6753 31.9913C43.4043 31.7193 43.0681 31.5833 42.6667 31.5833H38.4167V27.3333C38.4167 26.9319 38.2807 26.5957 38.0087 26.3247C37.7367 26.0536 37.4004 25.9176 37 25.9167C36.5996 25.9157 36.2633 26.0517 35.9913 26.3247C35.7193 26.5976 35.5833 26.9338 35.5833 27.3333V31.5833H31.3333C30.9319 31.5833 30.5957 31.7193 30.3247 31.9913C30.0536 32.2633 29.9176 32.5996 29.9167 33C29.9157 33.4004 30.0517 33.7371 30.3247 34.0101C30.5976 34.283 30.9338 34.4186 31.3333 34.4167H35.5833ZM27.0833 45.75C26.3042 45.75 25.6374 45.4728 25.083 44.9184C24.5286 44.364 24.2509 43.6968 24.25 42.9167V23.0833C24.25 22.3042 24.5277 21.6374 25.083 21.083C25.6383 20.5286 26.3051 20.2509 27.0833 20.25H46.9167C47.6958 20.25 48.3631 20.5277 48.9184 21.083C49.4737 21.6383 49.7509 22.3051 49.75 23.0833V33.2125C49.75 33.6375 49.5847 33.986 49.2542 34.258C48.9236 34.53 48.5458 34.6183 48.1208 34.5229C46.775 34.334 45.4764 34.4403 44.225 34.8417C42.9736 35.2431 41.8639 35.9278 40.8958 36.8958C39.9514 37.8403 39.2667 38.95 38.8417 40.225C38.4167 41.5 38.2986 42.7986 38.4875 44.1208C38.5347 44.5458 38.4341 44.9236 38.1857 45.2542C37.9374 45.5847 37.6129 45.75 37.2125 45.75H27.0833Z" fill="black"/>
<defs>
<filter id="filter0_d_4015_7" x="0" y="0" width="74" height="74" filterUnits="userSpaceOnUse" color-interpolation-filters="sRGB">
<feFlood flood-opacity="0" result="BackgroundImageFix"/>
<feColorMatrix in="SourceAlpha" type="matrix" values="0 0 0 0 0 0 0 0 0 0 0 0 0 0 0 0 0 0 127 0" result="hardAlpha"/>
<feOffset dy="4"/>
<feGaussianBlur stdDeviation="4.5"/>
<feComposite in2="hardAlpha" operator="out"/>
<feColorMatrix type="matrix" values="0 0 0 0 1 0 0 0 0 0.895833 0 0 0 0 0.895833 0 0 0 0.25 0"/>
<feBlend mode="normal" in2="BackgroundImageFix" result="effect1_dropShadow_4015_7"/>
<feBlend mode="normal" in="SourceGraphic" in2="effect1_dropShadow_4015_7" result="shape"/>
</filter>
</defs>
</svg>
